<?xml version="1.0" encoding="utf-8"?>
<svg
	version="1.1"
	xmlns:rdf="http://www.w3.org/1999/02/22-rdf-syntax-ns#"
	xmlns:dc="http://purl.org/dc/elements/1.1/"
	xmlns:cc="http://creativecommons.org/ns#"
	xmlns="http://www.w3.org/2000/svg"
	xmlns:xlink="http://www.w3.org/1999/xlink"
	width="420"
	height="420">
<metadata>
	<rdf:RDF>
	<cc:Work rdf:about="">
		<dc:format>image/svg+xml</dc:format>
		<dc:type rdf:resource="http://purl.org/dc/dcmitype/StillImage"/>
		<dc:title>Alice</dc:title>
		<cc:license rdf:resource="http://creativecommons.org/publicdomain/zero/1.0/"/>
		<dc:creator>
			<dc:Agent><cc:attributionName>T.R. van de Kamp</cc:attributionName></dc:Agent>
		</dc:creator>
	</cc:Work>
	</rdf:RDF>
</metadata>
<defs>
	<clipPath id="head">
		<circle cx="210" cy="140" r="69" />
	</clipPath>
	<clipPath id="long-hair">
		<rect y="100" width="100%" height="200"/>
	</clipPath>
</defs>
<style type="text/css">
<![CDATA[
* {
	stroke-linejoin: round;
}
.person {
	fill: #EEEEEC;
	stroke-width: 5;
	stroke: #2E3436;
}
.body {
	fill: #FCAF3E;
}
.hair {
	clip-path: url(#head);
	fill: #FCE94F;
	stroke-width: 3;
	stroke: #2E3436;
}
.long-hair {
	clip-path: url(#long-hair);
	stroke-width: 5 !important;
}
.eyes {
	fill: #2E3436;
}
.smile {
	fill: none;
	stroke-width: 5;
	stroke: #2E3436;
	stroke-linecap: round;
}
.necklace {
	fill: none;
	stroke: #EEEEEC;
	stroke-width: 3;
	stroke-dasharray: 0,5;
	stroke-linecap: round;
}
]]>
</style>
<path d="M130,185 c0,-157 160,-157 160,0 q2,3 20,-15 c0,100 -200,100 -200,0 q18,18 20,15 z" class="hair long-hair"/>
<circle cx="210" cy="139" r="70" class="person head"/>
<path d="M70,415 c0,-100 40,-200 100,-200 h80 C310,220 350,320 350,415 z" class="person body"/>
<g class="hair top-hair">
	<circle cx="140" cy="20" r="100"/>
	<circle cx="280" cy="20" r="100"/>
</g>
<circle cx="180" cy="130" r="3" class="eyes"/>
<circle cx="240" cy="130" r="3" class="eyes"/>
<path d="M195,170 a20,15 0 0,0 30,0" class="smile"/>
<path d="M160,220 q50,200 100,0" class="necklace"/>
</svg>
