<?xml version="1.0" encoding="utf-8"?>
<svg
	version="1.1"
	xmlns:rdf="http://www.w3.org/1999/02/22-rdf-syntax-ns#"
	xmlns:dc="http://purl.org/dc/elements/1.1/"
	xmlns:cc="http://creativecommons.org/ns#"
	xmlns="http://www.w3.org/2000/svg"
	width="420"
	height="420">
<metadata>
	<rdf:RDF>
	<cc:Work rdf:about="">
		<dc:format>image/svg+xml</dc:format>
		<dc:type rdf:resource="http://purl.org/dc/dcmitype/StillImage"/>
		<dc:title>computer showing skull and crossbones</dc:title>
		<cc:license rdf:resource="http://creativecommons.org/publicdomain/zero/1.0/"/>
		<dc:creator>
			<dc:Agent><cc:attributionName>T.R. van de Kamp</cc:attributionName></dc:Agent>
		</dc:creator>
	</cc:Work>
	</rdf:RDF>
</metadata>
<style type="text/css">
<![CDATA[
.computer {
	stroke: #2E3436;
	stroke-linejoin: round;
	stroke-width: 5;
}
.bezel {
	fill: #D3D7CF;
}
.screen, .keyboard {
	fill: #EEEEEC;
}
.skull-and-crossbones {
	stroke: #2E3436;
	stroke-linejoin: round;
	stroke-width: 15;
}
.skull, .bone {
	fill: #EEEEEC;
}
.eye, .nose, .tooth {
	fill: none;
}
.tooth {
	stroke-linecap: round;
}
]]>
</style>
<g class="computer">
	<rect x="80" y="45" width="260" height="220" class="bezel"/>
	<rect x="90" y="55" width="240" height="180" class="screen"/>
	<path d="M20,375 l50,-85 h280 l50,85 z" class="keyboard"/>
</g>
<g transform="matrix(0.4, 0, 0, 0.4, 126, 61)" class="skull-and-crossbones">
	<path d="M50,80 a20,20 0 1 1 -10 -40 a20,20 0 1 1 40 10 l290,290 a20,20 0 1 1 10 40 a20,20 0 1 1 -40 -10 z" class="bone"/>
	<path d="M80,370 a20,20 0 1 1 -40 10 a20,20 0 1 1 10 -40 l290,-290 a20,20 0 1 1 40 -10 a20,20 0 1 1 -10 40 z" class="bone"/>
	<path d="M115,230 v25 h20 l15,55 h120 l15,-55 h20 v-25 a105,90 0 1 0 -190,0 z" class="skull"/>
	<circle cx="165" cy="210" r="20" class="eye"/>
	<circle cx="255" cy="210" r="20" class="eye"/>
	<path d="M195,265 l15,-30 l15,30 z" class="nose"/>
	<path d="M150,310 m35,0 v-20 m50,20 v-20" class="tooth"/>
</g>
</svg>
