<?xml version="1.0" encoding="utf-8"?>
<svg
	version="1.1"
	xmlns:rdf="http://www.w3.org/1999/02/22-rdf-syntax-ns#"
	xmlns:dc="http://purl.org/dc/elements/1.1/"
	xmlns:cc="http://creativecommons.org/ns#"
	xmlns:xlink="http://www.w3.org/1999/xlink"
	xmlns="http://www.w3.org/2000/svg"
	width="420"
	height="420">
<metadata>
	<rdf:RDF>
	<cc:Work rdf:about="">
		<dc:format>image/svg+xml</dc:format>
		<dc:type rdf:resource="http://purl.org/dc/dcmitype/StillImage"/>
		<dc:title>shuffle</dc:title>
		<cc:license rdf:resource="http://creativecommons.org/publicdomain/zero/1.0/"/>
		<dc:creator>
			<dc:Agent><cc:attributionName>T.R. van de Kamp</cc:attributionName></dc:Agent>
		</dc:creator>
	</cc:Work>
	</rdf:RDF>
</metadata>
<style type="text/css">
<![CDATA[
* {
	stroke-linejoin: round;
}
.arrow {
	fill: #EEEEEC;
	stroke-width: 5;
	stroke: #2E3436;
}
#arrow-A {
	fill: #3465A4;
}
#arrow-B {
	fill: #FCAF3E;
}
#arrow-C {
	fill: #75507B;
}
]]>
</style>
<symbol id="down-1" width="420" height="265">
	<path d="M10,30 c180,0 230,155 340,155 h10 v-20 l50,45 l-50,45 v-20 h-10 c-150,0 -190,-155 -340,-155 z"/>
</symbol>
<symbol id="down-2" width="420" height="420">
	<path d="M10,30 c180,0 230,310 340,310 h10 v-20 l50,45 l-50,45 v-20 h-10 c-150,0 -200,-310 -340,-310 z"/>
</symbol>
<symbol id="up-1" width="420" height="265">
	<path d="M10,185 c150,0 190,-155 340,-155 h10 v-20 l50,45 l-50,45 v-20 h-10 c-110,0 -160,155 -340,155 z"/>
</symbol>
<symbol id="up-2" width="420" height="420">
	<path d="M10,340 c150,0 200,-310 340,-310 h10 v-20 l50,45 l-50,45 v-20 h-10 c-110,0 -160,310 -340,310 z"/>
</symbol>
<use xlink:href="#up-1" y="0" class="arrow" id="arrow-B"/>
<use xlink:href="#up-1" y="155" class="arrow" id="arrow-C"/>
<use xlink:href="#down-2" y="0" class="arrow" id="arrow-A"/>
</svg>
