<?xml version="1.0" encoding="utf-8"?>
<svg
	version="1.1"
	xmlns:rdf="http://www.w3.org/1999/02/22-rdf-syntax-ns#"
	xmlns:dc="http://purl.org/dc/elements/1.1/"
	xmlns:cc="http://creativecommons.org/ns#"
	xmlns="http://www.w3.org/2000/svg"
	width="420"
	height="420">
<metadata>
	<rdf:RDF>
	<cc:Work rdf:about="">
		<dc:format>image/svg+xml</dc:format>
		<dc:type rdf:resource="http://purl.org/dc/dcmitype/StillImage"/>
		<dc:title>bacteriophage virus</dc:title>
		<cc:license rdf:resource="http://creativecommons.org/publicdomain/zero/1.0/"/>
		<dc:creator>
			<dc:Agent><cc:attributionName>T.R. van de Kamp</cc:attributionName></dc:Agent>
		</dc:creator>
	</cc:Work>
	</rdf:RDF>
</metadata>
<style type="text/css">
<![CDATA[
* {
	stroke: #2E3436;
	stroke-linejoin: round;
	stroke-width: 5;
}
.head, .collar, .tail {
	fill: #4E9A06;
}
.tail {
	stroke-width: 4;
}
]]>
</style>
<g id="left">
	<path d="M200,277 l-85,10 l-50,80 a10,10 0 0 0 16,10 l46,-75 l85,-10" class="tail"/>
	<path d="M200,296 l-65,20 l-15,85 a10,10 0 0 0 17.5,3.5 l14,-77 l65,-20" class="tail"/>
	<path d="M200,315 l-40,20 v70 a10,10 0 0 0 20,0 v-63 l40,-20" class="tail"/>
</g>
<g id="right">
	<path d="M220,277 l85,10 l50,80 a10,10 0 0 1 -16,10 l-46,-75 l-85,-10" class="tail"/>
	<path d="M220,296 l65,20 l15,85 a10,10 0 0 1 -17.5,3.5 l-14,-77 l-65,-20" class="tail"/>
	<path d="M220,315 l40,20 v70 a10,10 0 0 1 -20,0 v-63 l-40,-20" class="tail"/>
</g>
<path d="M200,155 a10,10 0 0 1 20,0 v170 a10,10 0 0 1 -20,0 z" class="collar"/>
<path d="M210,20 l55,35 v65 l-55,35 l-55,-35 v-65 z v135 m-55,-35 l110,-65 m0,65 l-110,-65" class="head"/>
</svg>
